<?xml version="1.0" standalone="no"?>
<!DOCTYPE svg PUBLIC "-//W3C//DTD SVG 20010904//EN"
 "http://www.w3.org/TR/2001/REC-SVG-20010904/DTD/svg10.dtd">
<svg version="1.0" xmlns="http://www.w3.org/2000/svg"
 width="1024.000000pt" height="1024.000000pt" viewBox="0 0 1024.000000 1024.000000"
 preserveAspectRatio="xMidYMid meet">

<g transform="translate(0.000000,1024.000000) scale(0.100000,-0.100000)"
fill="#000000" stroke="none">
<path d="M4903 8963 c30 -279 34 -1127 7 -1297 -16 -103 -61 -188 -142 -268
-38 -37 -73 -68 -77 -68 -4 0 -11 111 -14 248 -13 501 -51 676 -166 757 -78
55 -220 46 -383 -26 -330 -145 -717 -476 -1018 -874 -470 -619 -767 -1447
-821 -2285 -34 -535 59 -870 252 -905 45 -8 139 15 211 51 52 26 85 47 292
188 182 124 401 215 646 270 63 14 219 39 345 56 362 48 481 85 564 176 77 82
107 179 117 381 6 115 5 135 -7 128 -8 -5 -83 -58 -167 -119 -277 -200 -286
-206 -315 -206 -15 0 -129 51 -257 115 -249 125 -264 137 -241 193 8 19 61 64
163 138 83 60 221 160 307 222 85 61 159 112 163 112 4 0 8 5 8 10 0 6 -106
10 -299 10 -277 0 -300 1 -305 18 -35 112 -31 444 6 490 8 10 150 12 670 12
l658 -1 45 35 c35 26 41 35 29 40 -9 3 -119 6 -245 6 l-229 0 -2 225 c-1 124
-2 237 -2 251 -1 23 10 33 79 71 98 54 178 108 272 185 l73 59 68 -55 c99 -78
223 -161 301 -200 l67 -34 -4 -121 c-3 -67 -1 -121 3 -121 6 0 71 46 471 337
147 106 220 153 238 153 15 0 130 -52 255 -115 191 -96 230 -119 240 -143 15
-37 2 -72 -36 -97 -15 -10 -138 -98 -273 -195 -135 -97 -281 -201 -325 -231
l-80 -54 52 -3 c58 -3 55 1 74 -100 14 -72 7 -266 -12 -354 l-12 -58 -406 0
-407 0 -58 -42 -58 -43 155 -3 154 -2 0 -308 c-1 -250 2 -320 15 -378 19 -82
55 -158 98 -207 68 -78 225 -132 470 -161 579 -71 807 -148 1178 -400 195
-132 247 -160 329 -177 155 -32 250 67 310 321 26 110 27 126 27 390 1 230 -3
301 -22 435 -32 236 -58 368 -107 559 -193 751 -525 1357 -1005 1836 -287 288
-580 488 -818 560 -107 32 -214 26 -274 -15 -55 -39 -103 -132 -123 -238 -18
-96 -35 -369 -35 -582 0 -88 -4 -166 -9 -173 -10 -16 -91 45 -134 102 -42 54
-85 155 -97 227 -26 154 -22 982 6 1282 l7 67 -223 0 -223 0 6 -57z m-1215
-1532 c21 -43 26 -70 27 -125 0 -86 -28 -147 -118 -258 -127 -158 -143 -258
-70 -437 9 -21 -83 48 -127 95 -63 69 -84 119 -85 199 0 89 17 125 131 270
147 188 166 252 117 393 -13 38 100 -87 125 -137z m162 -231 c24 -85 -7 -167
-100 -264 -32 -34 -66 -79 -75 -99 -18 -44 -19 -109 -1 -159 8 -21 10 -38 6
-38 -17 0 -90 94 -106 136 -15 38 -15 53 -6 96 14 57 32 86 114 179 68 78 98
140 100 206 l1 47 28 -35 c16 -19 33 -50 39 -69z m-420 -731 c0 -6 -12 -30
-26 -55 -20 -35 -25 -52 -20 -79 5 -23 2 -42 -9 -58 -8 -13 -12 -27 -8 -31 4
-3 8 -46 10 -94 3 -79 5 -89 28 -107 16 -13 25 -31 25 -48 0 -27 0 -27 -75
-27 -70 0 -76 2 -84 23 -5 13 -20 31 -34 40 -26 17 -39 60 -38 129 0 20 -4 40
-9 43 -12 8 -13 52 -1 59 4 3 12 37 15 76 6 61 11 73 31 82 12 5 28 21 34 34
10 22 16 24 86 24 47 0 75 -4 75 -11z m240 -21 c-23 -89 -31 -217 -20 -317 6
-57 15 -114 21 -128 5 -13 9 -26 9 -29 0 -2 -31 -4 -70 -4 l-70 0 -20 40 c-57
111 -62 273 -14 403 l26 67 73 0 73 0 -8 -32z m3569 -18 c37 -86 47 -193 29
-289 -9 -45 -26 -102 -38 -126 l-22 -45 -484 0 c-266 0 -484 3 -484 8 1 4 7
34 15 67 19 76 19 288 1 373 l-14 62 488 0 488 0 21 -50z"/>
<path d="M6154 7138 c-351 -254 -717 -520 -789 -573 -109 -81 -212 -156 -445
-325 -857 -622 -1060 -771 -1060 -776 0 -3 84 -46 186 -96 177 -87 188 -90
211 -76 29 17 416 298 868 628 177 129 351 256 386 281 35 25 192 140 349 254
157 115 341 249 410 299 69 49 143 104 166 121 23 16 78 56 123 89 45 32 80
60 79 61 -2 1 -87 45 -189 97 l-185 95 -110 -79z"/>
<path d="M3265 3837 c-157 -52 -242 -163 -264 -342 -25 -213 67 -403 226 -466
47 -18 78 -23 163 -23 122 -1 188 20 259 81 140 119 181 368 93 557 -40 86
-82 130 -160 168 -60 30 -75 33 -172 35 -66 2 -120 -2 -145 -10z m215 -159
c144 -73 160 -381 25 -484 -30 -22 -50 -29 -101 -32 -85 -6 -138 24 -179 100
-25 45 -30 67 -33 144 -7 145 33 235 123 275 54 25 112 24 165 -3z"/>
<path d="M4307 3832 c-105 -38 -156 -109 -157 -220 0 -116 50 -175 204 -238
109 -45 151 -74 160 -110 9 -36 -9 -78 -41 -95 -41 -22 -176 -17 -243 9 -30
12 -56 22 -57 22 -3 0 -43 -125 -43 -136 0 -25 150 -64 252 -64 206 0 328 95
328 254 -1 131 -60 191 -271 275 -73 29 -101 58 -97 101 5 53 45 75 126 73 37
-1 90 -9 117 -17 28 -9 53 -16 56 -16 10 0 41 120 36 134 -16 41 -278 61 -370
28z"/>
<path d="M6040 3841 c-151 -49 -247 -168 -271 -334 -31 -219 62 -412 231 -479
79 -32 241 -31 321 0 165 65 257 257 229 478 -19 149 -88 252 -207 310 -52 26
-70 29 -168 31 -60 1 -121 -1 -135 -6z m183 -152 c88 -24 140 -123 139 -268
-2 -175 -80 -268 -217 -259 -119 7 -176 84 -183 245 -10 216 94 329 261 282z"/>
<path d="M2210 3430 l0 -410 84 0 c81 0 84 1 90 25 4 14 4 142 1 283 l-6 257
49 -91 c26 -49 92 -164 144 -255 53 -90 102 -176 109 -191 12 -28 13 -28 106
-28 l93 0 0 410 0 410 -86 0 -85 0 3 -279 c2 -154 2 -278 0 -277 -1 2 -22 43
-47 92 -24 49 -91 172 -148 274 l-103 185 -102 3 -102 3 0 -411z"/>
<path d="M4830 3430 l0 -410 86 0 86 0 -4 294 -4 294 33 -90 c17 -49 58 -154
89 -234 l58 -144 62 0 62 0 70 178 c39 97 79 202 89 232 l18 55 3 -292 2 -293
85 0 85 0 0 410 0 410 -109 0 -108 0 -77 -192 c-41 -106 -84 -218 -94 -248
l-19 -55 -21 65 c-12 36 -53 146 -91 245 l-69 180 -116 3 -116 3 0 -411z"/>
<path d="M6670 3431 l0 -408 41 -7 c22 -4 63 -4 90 0 l49 7 0 196 c1 176 2
194 16 176 8 -11 71 -99 140 -195 70 -96 127 -176 128 -178 7 -7 216 -9 216
-2 0 5 -70 103 -155 217 -85 114 -155 210 -155 213 0 3 66 90 145 193 80 103
145 190 145 192 0 3 -45 5 -100 5 l-100 0 -53 -72 c-67 -91 -187 -256 -209
-288 -16 -24 -17 -17 -17 168 l-1 192 -90 0 -90 0 0 -409z"/>
<path d="M7440 3431 l0 -408 208 -5 c114 -2 237 -2 275 0 l67 4 0 69 0 69
-182 2 -183 3 -3 98 -3 97 146 0 145 0 0 75 0 74 -142 3 -143 3 -3 87 -3 88
178 2 178 3 3 73 3 72 -271 0 -270 0 0 -409z"/>
</g>
</svg>
